<svg width="40" height="40" viewBox="0 0 40 40" fill="none" xmlns="http://www.w3.org/2000/svg">
<path d="M15.3225 20.2346C13.0496 20.2346 11.2134 22.0708 11.247 24.3213C11.2694 25.7656 12.0644 27.0196 13.2344 27.7194C12.8369 27.1092 12.6018 26.387 12.5906 25.6089C12.557 23.3584 14.3932 21.5222 16.666 21.5222C17.1139 21.5222 17.545 21.595 17.948 21.7238V17.2172C17.5282 17.1557 17.0971 17.1221 16.666 17.1221C16.6437 17.1221 16.6269 17.1221 16.6045 17.1221V20.4362C16.2014 20.3074 15.7703 20.2346 15.3225 20.2346Z" fill="white"/>
<path d="M25.1487 6.7207H25.1151H23.9507C24.2866 8.40575 25.2327 9.87246 26.5538 10.8689C25.6861 9.72131 25.1599 8.28818 25.1487 6.7207Z" fill="white"/>
<path d="M32.0007 13.5782C31.5584 13.5782 31.1329 13.5335 30.7131 13.4551L23.8274 14.3396L16.6058 32.5951C16.1859 32.6567 15.7548 32.6903 15.3238 32.6903C13.4092 32.6903 11.5842 32.0689 10.1007 30.9213C10.2687 31.1228 10.4478 31.3188 10.6437 31.5091C12.256 33.099 14.3945 33.9779 16.6729 33.9779C17.104 33.9779 17.535 33.9443 17.9549 33.8827C19.7463 33.6196 21.3978 32.7967 22.7021 31.5091C24.3032 29.9248 25.1877 27.8255 25.1989 25.5863L25.1149 15.6272C25.8763 16.215 26.7104 16.7076 27.6117 17.0827C29.0056 17.6705 30.4836 17.9728 32.0007 17.9728" fill="white"/>
<path d="M10.6259 19.602C12.2214 18.0177 14.3431 17.1388 16.6047 17.122V15.9296C16.1849 15.8681 15.7538 15.8345 15.3228 15.8345C13.0387 15.8345 10.8946 16.7134 9.28236 18.3145C7.69808 19.8875 6.79118 22.0372 6.79678 24.2709C6.79678 26.5213 7.68688 28.6318 9.29355 30.2273C9.55107 30.4792 9.81418 30.7143 10.0941 30.9271C8.82891 29.4212 8.14033 27.5402 8.13474 25.5585C8.14033 23.3248 9.04163 21.1751 10.6259 19.602Z" fill="white"/>
<path d="M30.7119 13.4555V12.2575H30.7007C29.1444 12.2575 27.7113 11.7424 26.5581 10.8691C27.5602 12.1903 29.0269 13.1308 30.7119 13.4555Z" fill="white"/>
<path d="M16.4385 29.5723C16.9703 29.6003 17.4797 29.5275 17.95 29.3764C19.5734 28.8446 20.7434 27.3331 20.7434 25.5528L20.749 18.891V6.72068H23.9512C23.8672 6.30082 23.8224 5.87536 23.8168 5.43311H19.4055V17.5979L19.3999 24.2597C19.3999 26.0399 18.2299 27.5514 16.6064 28.0832C16.1362 28.24 15.6267 28.3127 15.0949 28.2791C14.4175 28.24 13.7849 28.0384 13.2363 27.7137C13.9249 28.7774 15.1005 29.4995 16.4385 29.5723Z" fill="white"/>
<path d="M16.606 32.5953C18.3974 32.3322 20.0489 31.5093 21.3532 30.2217C22.9543 28.6374 23.8388 26.5381 23.85 24.2989L23.8276 14.3398C24.589 14.9276 25.4231 15.4202 26.3244 15.7953C27.7183 16.3831 29.1962 16.6854 30.7133 16.6854V13.4553C29.0283 13.1306 27.5616 12.1901 26.5595 10.8689C25.2384 9.87246 24.2867 8.40575 23.9564 6.7207H20.7486V18.8855L20.743 25.5473C20.743 27.3275 19.573 28.839 17.9496 29.3708C17.4793 29.5275 16.9699 29.6003 16.4381 29.5667C15.0945 29.494 13.9245 28.7718 13.2359 27.7138C12.0659 27.0196 11.271 25.76 11.2486 24.3157C11.215 22.0652 13.0512 20.229 15.324 20.229C15.7719 20.229 16.203 20.3018 16.606 20.4306V17.1165C14.3444 17.1333 12.2227 18.0122 10.6272 19.5964C9.04293 21.1695 8.13603 23.3192 8.14163 25.5473C8.14163 27.529 8.8302 29.41 10.101 30.9159C11.5901 32.0635 13.4095 32.6849 15.324 32.6849C15.7551 32.6905 16.1862 32.6569 16.606 32.5953Z" fill="white"/>
</svg>
